<?xml version="1.0" encoding="UTF-8" standalone="no"?>
<!DOCTYPE svg PUBLIC "-//W3C//DTD SVG 1.1//EN"
 "http://www.w3.org/Graphics/SVG/1.1/DTD/svg11.dtd">
<!-- Generated by graphviz version 2.34.0 (20140309.1550)
 -->
<!-- Title: Main Pages: 1 -->
<svg width="319pt" height="402pt"
 viewBox="0.00 0.00 319.00 402.00" xmlns="http://www.w3.org/2000/svg" xmlns:xlink="http://www.w3.org/1999/xlink">
<g id="graph0" class="graph" transform="scale(1 1) rotate(0) translate(4 398)">
<title>Main</title>
<polygon fill="white" stroke="white" points="-4,4 -4,-398 315,-398 315,4 -4,4"/>
<!-- Start -->
<g id="node1" class="node"><title>Start</title>
<polygon fill="none" stroke="black" points="268,-394 214,-394 214,-358 268,-358 268,-394"/>
<text text-anchor="middle" x="241" y="-370.4" font-family="Times,serif" font-size="14.00">Start</text>
</g>
<!-- WaitStartGame -->
<g id="node2" class="node"><title>WaitStartGame</title>
<ellipse fill="none" stroke="black" cx="241" cy="-302" rx="69.998" ry="18"/>
<text text-anchor="middle" x="241" y="-296.4" font-family="Times,serif" font-size="14.00">WaitStartGame</text>
</g>
<!-- Start&#45;&gt;WaitStartGame -->
<g id="edge1" class="edge"><title>Start&#45;&gt;WaitStartGame</title>
<path fill="none" stroke="black" d="M241,-357.937C241,-349.807 241,-339.876 241,-330.705"/>
<polygon fill="black" stroke="black" points="244.5,-330.441 241,-320.441 237.5,-330.441 244.5,-330.441"/>
</g>
<!-- StartGame -->
<g id="node3" class="node"><title>StartGame</title>
<ellipse fill="none" stroke="black" cx="91" cy="-208" rx="52.0008" ry="18"/>
<text text-anchor="middle" x="91" y="-202.4" font-family="Times,serif" font-size="14.00">StartGame</text>
</g>
<!-- WaitStartGame&#45;&gt;StartGame -->
<g id="edge2" class="edge"><title>WaitStartGame&#45;&gt;StartGame</title>
<path fill="none" stroke="black" stroke-dasharray="1,5" d="M215.214,-285.185C190.078,-269.768 151.738,-246.253 124.306,-229.428"/>
<polygon fill="black" stroke="black" points="125.81,-226.245 115.456,-224 122.151,-232.212 125.81,-226.245"/>
<text text-anchor="middle" x="205" y="-251.5" font-family="Times,serif" font-size="14.00">タップ</text>
</g>
<!-- GameOver -->
<g id="node4" class="node"><title>GameOver</title>
<ellipse fill="none" stroke="black" cx="53" cy="-114" rx="53.0988" ry="18"/>
<text text-anchor="middle" x="53" y="-108.4" font-family="Times,serif" font-size="14.00">GameOver</text>
</g>
<!-- StartGame&#45;&gt;GameOver -->
<g id="edge3" class="edge"><title>StartGame&#45;&gt;GameOver</title>
<path fill="none" stroke="black" stroke-dasharray="1,5" d="M84.0302,-190.126C78.441,-176.594 70.4922,-157.35 64.0391,-141.726"/>
<polygon fill="black" stroke="black" points="67.1069,-139.985 60.0543,-132.079 60.637,-142.658 67.1069,-139.985"/>
<text text-anchor="middle" x="119" y="-157.5" font-family="Times,serif" font-size="14.00">障害物に衝突</text>
</g>
<!-- WaitInitGame -->
<g id="node5" class="node"><title>WaitInitGame</title>
<ellipse fill="none" stroke="black" cx="147" cy="-18" rx="65.2545" ry="18"/>
<text text-anchor="middle" x="147" y="-12.4" font-family="Times,serif" font-size="14.00">WaitInitGame</text>
</g>
<!-- GameOver&#45;&gt;WaitInitGame -->
<g id="edge4" class="edge"><title>GameOver&#45;&gt;WaitInitGame</title>
<path fill="none" stroke="black" stroke-dasharray="1,5" d="M45.9338,-95.9434C41.8946,-83.2447 39.1501,-66.0877 47.7059,-54 55.5319,-42.9436 67.148,-35.3555 79.7041,-30.1541"/>
<polygon fill="black" stroke="black" points="81.2333,-33.3227 89.4417,-26.624 78.8476,-26.7418 81.2333,-33.3227"/>
<text text-anchor="middle" x="141.147" y="-63.41" font-family="Times,serif" font-size="14.00">GameOverアニメーション終了</text>
</g>
<!-- WaitInitGame&#45;&gt;WaitStartGame -->
<g id="edge5" class="edge"><title>WaitInitGame&#45;&gt;WaitStartGame</title>
<path fill="none" stroke="black" stroke-dasharray="1,5" d="M199.194,-29.0706C212.681,-34.2565 225.719,-42.1096 234,-54 280.709,-121.07 261.771,-225.115 249.028,-273.952"/>
<polygon fill="black" stroke="black" points="245.604,-273.206 246.351,-283.774 252.357,-275.046 245.604,-273.206"/>
<text text-anchor="middle" x="284" y="-157.5" font-family="Times,serif" font-size="14.00">タップ</text>
</g>
</g>
</svg>
